<svg xmlns="http://www.w3.org/2000/svg" enable-background="new 372.673 -117.212 3000 3000" viewBox="372.673 -117.212 3000 3000" id="shopping-big-sale">
  <path fill="#DCF4E6" d="M2811.271,2490.131H999.654c19.119-103.001,87.697-189.197,180.714-233.89
		c34.426-16.72,72.325-27.697,112.172-31.717c24.626-82.197,67.312-156.799,123.544-219.468
		c108.255-120.551,266.875-196.557,443.623-196.557c243.342,0,452.207,144.163,542.915,350.165
		c11.459-1.149,23.037-2.021,34.752-2.021c171.394,0,310.194,136.229,310.194,304.153c0,1.702,0,3.127-0.137,4.595
		C2770.38,2470.113,2791.877,2478.643,2811.271,2490.131z"></path>
  <path fill="#93E5B6" d="M2365.716 2490.131h491.537c-12.973-23.413-40.541-16.154-70.219-16.779-5.547-17.503-20.918-17.135-54.032-11.746 41.95-38.256 28.862-75.841-44.299-51.344 83.564-113.762-45.977-139.762-65.107-142.037-24.104-2.875-134.91 14.844-76.18 133.31-71.147-29.529-90.612 5.374-36.916 66.786C2459.203 2470.726 2397.739 2481.993 2365.716 2490.131zM910.384 2490.131h858.529c-55.692-12.937-171.086-28.255-222.998-29.348-9.703-30.616-36.589-29.973-94.509-20.545 73.377-66.916 50.484-132.657-77.484-89.807 146.166-198.987-80.42-244.465-113.882-248.445-42.162-5.028-235.978 25.965-133.251 233.179-124.447-51.65-158.493 9.4-64.572 116.82C972.491 2456.189 940.655 2466.718 910.384 2490.131z"></path>
  <path fill="#DCF4E6" fill-rule="evenodd" d="M2732.406 974.056c-5.583 0-10.932 1.005-15.878 2.843-2.233-2.462-5.46-4.006-9.047-4.006-1.67 0-3.263.329-4.714.94-.803-10.523-9.592-18.808-20.315-18.808-4.66 0-8.952 1.563-12.384 4.194-2.195-3.023-5.755-4.987-9.777-4.987-.673 0-1.329.054-1.975.161 1.359-3.178 2.116-6.675 2.116-10.346 0-14.519-11.776-26.293-26.298-26.293-2.707 0-5.315.408-7.769 1.169-1.909-4.063-6.038-6.88-10.821-6.88l-.346.005c.054-.948.087-1.901.087-2.865 0-26.099-21.159-47.253-47.258-47.253-26.101 0-47.258 21.154-47.258 47.253 0 .368.006.73.014 1.095-2.285-.577-4.668-.885-7.133-.885-4.891 0-9.491 1.212-13.536 3.35-6.888-9.399-18.005-15.502-30.549-15.502-20.908 0-37.856 16.948-37.856 37.857 0 4.109.661 8.067 1.865 11.773-.376-.024-.755-.035-1.138-.035-10.3 0-18.645 8.345-18.645 18.639 0 1.212.12 2.397.338 3.535-.128-.003-.256-.005-.392-.005-5.815 0-10.556 4.621-10.744 10.393-1.612-.305-3.279-.471-4.984-.471-6.722 0-13.013 2.339-17.54 6.621-12.111 11.452 1.114 14.429 13.852 14.429h16.614 13.042 267.292 20.865 34.278c13.28 0 32.246 2.176 19.072-11.711C2757.173 979.511 2745.427 974.056 2732.406 974.056zM937.007 740.715c7.276 0 14.248 1.31 20.694 3.705 2.91-3.208 7.116-5.221 11.791-5.221 2.176 0 4.252.43 6.144 1.225 1.047-13.715 12.501-24.512 26.475-24.512 6.073 0 11.667 2.038 16.139 5.467 2.861-3.94 7.5-6.5 12.742-6.5.877 0 1.732.071 2.573.21-1.772-4.142-2.758-8.7-2.758-13.484 0-18.922 15.348-34.267 34.273-34.267 3.528 0 6.929.533 10.127 1.523 2.488-5.295 7.869-8.966 14.101-8.966l.451.007c-.071-1.236-.114-2.478-.114-3.734 0-34.014 27.576-61.583 61.59-61.583 34.017 0 61.589 27.569 61.589 61.583 0 .479-.007.951-.018 1.427 2.978-.753 6.084-1.153 9.296-1.153 6.375 0 12.37 1.58 17.641 4.366 8.976-12.249 23.465-20.203 39.814-20.203 27.249 0 49.337 22.088 49.337 49.337 0 5.356-.862 10.514-2.431 15.345.49-.032.983-.047 1.483-.047 13.424 0 24.299 10.876 24.299 24.292 0 1.579-.156 3.124-.44 4.607.167-.003.334-.007.511-.007 7.578 0 13.758 6.023 14.002 13.545 2.101-.397 4.274-.614 6.496-.614 8.76 0 16.959 3.049 22.858 8.629 15.785 14.925-1.451 18.805-18.052 18.805h-21.652-16.998H990.621h-27.192-44.673c-17.307 0-42.025 2.836-24.857-15.263C904.728 747.824 920.037 740.715 937.007 740.715z" clip-rule="evenodd"></path>
  <g>
    <polygon fill="#11405C" points="2025.844 1907.063 2077.646 1876.404 2550.915 1876.404 2519.355 1907.063"></polygon>
    <path fill="#91C4F6" d="M2254.771,1835.601l-8.126,5.283l6.382,71.381l5.346,57.987l-137.718,10.839l-4.049-58.09l-4.815-71.504
					l-8.863-3.946l-37.469-16.175c0,0,8.397-44.346,34.801-70.472c10.997-11.197,25.433-18.039,38.303-22.4
					c0.25-0.019,0.25-0.019,0.492-0.039c0.759-0.302,1.756-0.661,2.525-0.963c11.603-3.495,22.07-5.112,26.944-5.738
					c0,0,0.529-0.042,1.788-0.141c1.037-0.082,1.797-0.142,1.797-0.142c4.913-0.144,15.243-0.164,27.259,1.472
					c1.067,0.158,1.839,0.378,2.876,0.539c13.336,2.055,28.714,6.794,41.606,16.11c30.136,21.677,45.369,64.163,45.369,64.163
					L2254.771,1835.601z"></path>
    <polygon fill="#549BEC" points="2116.606 1923.001 2111.791 1851.497 2102.928 1847.551 2119.03 1815.774"></polygon>
    <polygon fill="#549BEC" points="2253.151 1912.255 2246.739 1840.876 2254.875 1835.593 2233.992 1806.726"></polygon>
    <polygon fill="#549BEC" points="2164.878 1977.61 2138.653 1979.674 2142.716 1965.656 2143.241 1972.337 2148.733 1940.119 2152.661 1964.099 2154.573 1958.271"></polygon>
    <path fill="#549BEC" d="M2202.507,1736.819c-1.039,9.407-13.844,17.659-30.294,18.954c-16.44,1.294-30.61-4.836-32.897-13.981
					c0.759-0.302,1.757-0.651,2.527-0.944c11.602-3.516,22.069-5.123,26.942-5.758c0,0,0.529-0.042,1.788-0.141
					c1.038-0.082,1.798-0.142,1.798-0.142c4.913-0.135,15.242-0.164,27.26,1.493
					C2200.699,1736.448,2201.47,1736.658,2202.507,1736.819z"></path>
    <path fill="#2F627C" d="M2199.633,1736.3c-0.324,8.79-12.142,16.703-27.542,17.916c-15.412,1.213-28.532-4.739-30.247-13.368
					c11.602-3.516,22.069-5.123,26.942-5.758c0,0,0.529-0.042,1.788-0.141c1.038-0.082,1.798-0.142,1.798-0.142
					C2177.285,1734.673,2187.615,1734.644,2199.633,1736.3z"></path>
    <path fill="#009444" d="M2172.201,1732.28l-0.58-7.377l-0.465-0.389c0,0-1.492-0.637-1.761-0.616
				c-0.654,0.052-1.362,0.021-1.958-0.174c-2.61-0.588-4.574-2.813-4.793-5.59c-0.073-0.924,0.051-1.796,0.396-2.586
				c0.77-2.285,2.841-3.977,5.369-4.176c2.577-0.203,4.849,1.146,5.966,3.284l5.769-0.454c-1.529-5.151-6.497-8.795-12.168-8.348
				c-5.557,0.437-9.943,4.816-10.617,10.142c-0.155,0.844-0.176,1.706-0.108,2.563c0.165,2.104,0.922,4.085,2.063,5.805
				c1.916,2.731,4.988,4.627,8.369,4.933l0.262,3.325c-10.267,1.099-19.505,4.001-26.792,8.039c0.285,0.17,1.946,2.951,1.946,2.951
				s0.926,2.074,1.95,3.038l52.396-4.123l2-3.475c0,0,1.216-1.885,1.495-2.768
				C2192.872,1733.243,2182.925,1731.693,2172.201,1732.28z"></path>
    <g>
      <path fill="#FFC439" d="M2509.957,1866.958l-11.124,2.96l-19.173,82.923l-15.392,67.423l-159.44-38.654l16.893-67.059
					l20.987-82.483l-8.545-7.728l-36.313-32.102c0,0,25.864-46.948,65.318-66.68c16.549-8.573,35.371-10.962,51.508-11.128
					c0.29,0.07,0.29,0.07,0.569,0.138c0.968-0.06,2.226-0.097,3.206-0.154c14.388,0.342,26.798,2.385,32.531,3.479
					c0,0,0.612,0.149,2.07,0.502c1.201,0.291,2.081,0.504,2.081,0.504c5.598,1.653,17.265,5.447,30.222,11.734
					c1.146,0.572,1.936,1.106,3.047,1.67c14.294,7.248,29.899,18.279,41.007,33.557c26.004,35.601,27.498,89.182,27.498,89.182
					L2509.957,1866.958z"></path>
      <polygon fill="#DBA12C" points="2321.721 1914.551 2342.708 1832.068 2334.163 1824.34 2364.078 1794.424"></polygon>
      <polygon fill="#DBA12C" points="2479.806 1952.876 2498.943 1869.945 2510.078 1866.988 2497.174 1826.691"></polygon>
      <polygon fill="#DBA12C" points="2356.026 1994.022 2325.664 1986.662 2335.429 1972.342 2333.554 1980.077 2351.657 1945.743 2347.23 1974.26 2351.541 1968.388"></polygon>
      <path fill="#DBA12C" d="M2487.469,1736.156c-4.649,10.234-22.15,14.816-41.196,10.199
					c-19.033-4.614-32.761-16.767-31.963-27.934c0.968-0.061,2.224-0.086,3.2-0.131c14.394,0.318,26.802,2.372,32.536,3.456
					c0,0,0.612,0.148,2.07,0.502c1.201,0.291,2.082,0.505,2.082,0.505c5.595,1.663,17.265,5.447,30.217,11.758
					C2485.565,1735.069,2486.358,1735.591,2487.469,1736.156z"></path>
      <path fill="#11405C" d="M2484.417,1734.508c-3.614,9.801-19.875,14.366-37.706,10.043
					c-17.843-4.326-30.452-15.891-29.199-26.263c14.394,0.318,26.802,2.372,32.536,3.456c0,0,0.612,0.148,2.07,0.502
					c1.201,0.291,2.082,0.505,2.082,0.505C2459.795,1724.414,2471.465,1728.198,2484.417,1734.508z"></path>
      <path fill="#009444" d="M2485.901,1734.972c-0.644,0.898-2.718,2.564-2.718,2.564l-3.533,3.179l-60.655-14.676
				c-0.823-1.496-1.085-4.179-1.085-4.179s-0.855-3.742-1.112-4.023c9.706-1.878,21.229-1.744,33.209,0.823l0.92-3.852
				c-3.682-1.604-6.465-4.881-7.599-8.659c-0.66-2.351-0.777-4.887-0.179-7.322c0.224-0.997,0.554-1.949,1.077-2.858
				c2.722-5.763,9.272-9.101,15.701-7.522c6.586,1.607,10.824,7.539,10.66,13.911l-6.673-1.601
				c-0.495-2.827-2.539-5.192-5.517-5.899c-2.926-0.727-5.909,0.416-7.621,2.702c-0.668,0.761-1.12,1.702-1.375,2.77
				c-0.815,3.225,0.601,6.452,3.333,8.107c0.575,0.419,1.37,0.722,2.139,0.89c0.298,0.088,1.766,1.359,1.766,1.359l0.361,0.621
				l-2.074,8.53C2467.258,1723.144,2477.918,1728.547,2485.901,1734.972z"></path>
    </g>
    <g>
      <rect width="133.628" height="133.628" x="2243.501" y="1831.949" fill="#FFC439" transform="rotate(1.403 2312.243 1897.636)"></rect>
      <path fill="#CDEEFF" d="M2330.609,1965.926l0.847-35.547l-4.004,2.914l-2.241-3.063l-3.9-1.481l-4.221,4.759
				l-2.217-6.534l-6.151,11.049l-3.608-9.43l-2.638,3.872l-3.102-5.861c0,0-1.751,27.42-2.791,38.51
				C2307.914,1965.942,2319.284,1965.021,2330.609,1965.926z" opacity=".5"></path>
      <polygon fill="#DBA12C" points="2245.11 1830.377 2278.321 1825.647 2397.685 1828.49 2378.7 1833.558"></polygon>
      <polygon fill="#DBA12C" points="2397.691 1828.481 2394.601 1958.258 2390.882 1959.987 2383.712 1963.339 2375.51 1967.155 2378.692 1833.569"></polygon>
      <path fill="#CDEEFF" d="M2297.621,1831.628l-0.953,40.02l4.004-2.914l2.242,3.063l3.899,1.481l4.222-4.76
				l2.216,6.533l7.452-21.347l2.307,19.728l2.639-3.871l3.101,5.859c0,0,2.583-40.443,3.338-42.971l9.138-4.643l-9.281,0.936
				l-0.204-1.162l-19.721-0.469L2297.621,1831.628z" opacity=".5"></path>
      <polygon fill="#CDEEFF" points="2375.518 1831.721 2384.969 1831.82 2384.981 1851.696 2386.613 1849.189 2387.193 1850.013 2388.662 1848.343 2389.975 1849.385 2391.918 1847.634 2392.34 1829.914 2382.877 1828.771 2383.658 1829.369 2382.162 1829.679 2381.009 1830.954" opacity=".5"></polygon>
      <polygon fill="#CDEEFF" points="2390.882 1959.987 2383.712 1963.339 2384.359 1951.035 2385.871 1953.619 2386.844 1949.011 2388.364 1950.354 2388.754 1946.973 2390.794 1943.211" opacity=".5"></polygon>
      <path fill="#CDEEFF" d="M2271.996,1826.547l10.824,0.378l-2.626,0.883l0.856,0.503c0,0-3.056,0.795-2.795,0.802
				c0.26,0.006,2.068,0.618,1.809,0.544c-0.259-0.073-4.297,0.014-4.297,0.014l-0.012,0.51l-16.647-1.796L2271.996,1826.547z" opacity=".5"></path>
    </g>
    <g>
      <rect width="106.568" height="106.568" x="2086.607" y="1855.189" fill="#FFC439" transform="rotate(173.477 2139.893 1908.554)"></rect>
      <path fill="#CDEEFF" d="M2128.586,1963.274l-3.221-28.173l3.389,2.028l1.561-2.594l2.991-1.456l3.695,3.477
				l1.293-5.348l5.677,8.335l2.19-7.749l2.373,2.887l2.043-4.877c0,0,3.356,21.653,4.977,30.387
				C2146.614,1961.66,2137.517,1961.744,2128.586,1963.274z" opacity=".5"></path>
      <polygon fill="#DBA12C" points="2186.78 1849.482 2160.062 1848.106 2065.459 1858.92 2080.901 1861.584"></polygon>
      <polygon fill="#DBA12C" points="2065.453 1858.913 2077.21 1961.77 2080.288 1962.877 2086.223 1965.026 2093.011 1967.468 2080.909 1861.592"></polygon>
      <path fill="#CDEEFF" d="M2145.162,1854.24l3.626,31.718l-3.389-2.028l-1.561,2.594l-2.991,1.456l-3.694-3.478
				l-1.292,5.348l-7.448-16.422l-0.419,15.835l-2.373-2.886l-2.043,4.876c0,0-4.951-31.938-5.731-33.891l-7.59-3.033l7.438,0.078
				l0.079-0.937l15.63-1.787L2145.162,1854.24z" opacity=".5"></path>
      <polygon fill="#CDEEFF" points="2083.297 1859.897 2075.797 1860.654 2077.212 1876.441 2075.737 1874.567 2075.334 1875.263 2074.049 1874.041 2073.08 1874.964 2071.411 1873.712 2069.806 1859.668 2077.24 1858.082 2076.662 1858.612 2077.873 1858.752 2078.881 1859.682" opacity=".5"></polygon>
      <polygon fill="#CDEEFF" points="2080.288 1962.877 2086.223 1965.026 2084.826 1955.299 2083.811 1957.46 2082.708 1953.87 2081.597 1955.046 2081.045 1952.388 2079.155 1949.545" opacity=".5"></polygon>
      <path fill="#CDEEFF" d="M2165.151,1848.368l-8.57,1.076l2.149,0.513l-0.643,0.461c0,0,2.484,0.412,2.278,0.436
				c-0.206,0.023-1.599,0.639-1.398,0.562s3.414-0.298,3.414-0.298l0.047,0.405l13.093-2.62L2165.151,1848.368z" opacity=".5"></path>
    </g>
    <rect width="493.49" height="604.996" x="2025.826" y="1907.101" fill="#91C4F6"></rect>
    <path fill="#549BEC" d="M2173.407 2009.073c.652 13.577-6.681 24.96-16.379 25.426-9.698.465-18.088-10.163-18.739-23.74-.652-13.577 6.682-24.96 16.379-25.426C2164.366 1984.867 2172.755 1995.496 2173.407 2009.073zM2394.206 2009.14c.632 13.166-6.479 24.204-15.883 24.655-9.404.452-17.54-9.855-18.171-23.02-.632-13.166 6.479-24.204 15.883-24.655C2385.438 1985.668 2393.574 1995.975 2394.206 2009.14z"></path>
    <g>
      <path fill="#CDEEFF" d="M2146.039,2018.335c-3.553,38.748-7.105,77.497-10.658,116.246c-3.052,33.287-7.722,67-6.343,100.491
			c2.48,60.217,35.495,108.669,92.967,128.968c29.154,10.298,60.672,12.31,91.293,9.588c22.937-2.038,49.795-6.116,62.771-27.629
			c14.708-24.385-3.553-46.359-21.17-62.996c-20.611-19.465-66.478-33.495-67.259-66.037c-0.535-22.285,15.387-40.34,28.447-56.588
			c10.745-13.367,20.838-27.175,29.956-41.709c16.425-26.178,43.128-65.753,36.932-98.307c-1.601-8.41-15.03-7.468-13.411,1.037
			c5.26,27.635-18.382,63.091-32.335,86.068c-14.664,24.145-34.323,44.397-49.449,68.062c-11.382,17.808-18.474,40.576-9.385,60.948
			c9.093,20.378,31.226,29.177,48.441,41.096c12.112,8.385,23.99,18.529,32.925,30.295c14.93,19.666,5.469,38.508-15.992,46.7
			c-26.847,10.248-63.216,8.606-90.901,3.676c-63.269-11.266-106.708-56.221-110.292-121.07
			c-1.904-34.448,3.196-69.298,6.336-103.55c3.445-37.574,6.89-75.149,10.335-112.724
			C2160.031,2012.347,2146.83,2009.719,2146.039,2018.335L2146.039,2018.335z"></path>
    </g>
    <polygon fill="#549BEC" points="2519.355 2512.097 2547.519 2479.227 2575.683 2470.235 2550.915 1876.404 2519.355 1907.063"></polygon>
    <polygon fill="#CDEEFF" points="2575.683 2470.235 2547.519 2479.227 2531.115 1895.603 2550.915 1876.404" opacity=".1"></polygon>
  </g>
  <g>
    <path fill="#D7A28E" d="M1987.506,1147.51l65.927-72.314l12.021-270.296l45.994-4.105c0,0,22.979,266.067,25.736,289.063
			s-85.017,117.746-85.017,117.746L1987.506,1147.51z"></path>
    <path fill="#C18C7C" d="M2056.812,999.2c0,0,0.819,72.448,11.176,74.799c10.357,2.351,28.619,11.294,26.485,12.889
			c-2.134,1.594-33.433-8.235-34.83-3.884c-1.397,4.352-21.514,36.354-21.514,36.354s48.463,44.377,34.884,64.909
			c-13.58,20.532-70.811-57.573-70.811-57.573l50.396-54.724L2056.812,999.2z"></path>
    <path fill="#D7A28E" d="M2065.454,804.9c-0.399-11.071-0.688-32.598,2.825-37.053c4.774-6.054,16.956-37.688,20.141-38.614
				c3.185-0.925,8.698,3.913,5.646,15.254c-3.052,11.341-11.424,19.467-4.799,19.782c6.625,0.315,20.156-10.617,20.156-10.617
				s10.481-30.585,14.635-32.187c1.654-0.637,3.41-0.053,4.867,1.356c1.603-6.533,4.371-12.294,8.776-10.94
				c1.842,0.566,1.256,13.286,1.843,24.891c0.822,16.243-5.169,25.937-5.169,25.937s-4.428,5.992-9.423,10.36l1.177,10.45
				c0,0-7.101,8.649-14.68,17.276c0.24,0.772-0.137,24.16-0.137,24.16l-45.956-3.796L2065.454,804.9z"></path>
    <path fill="#C18C7C" d="M2087.062 791.394c.152.026.285-.784.956-2.042.639-1.292 2.099-2.881 4.166-4.601 2.091-1.709 4.875-3.489 8.197-5.252 1.666-.873 3.448-1.777 5.366-2.638.953-.442 1.943-.869 2.955-1.298.508-.21 1.021-.422 1.54-.636.693-.271 1.392-.544 2.098-.819.246-1.942.498-3.94.757-5.987.267-1.858.539-3.76.817-5.702.59-3.878 1.251-7.911 2.131-11.986.399-1.827.833-3.625 1.371-5.328.267-.85.572-1.677.93-2.404.171-.368.394-.69.556-.904.123-.115.094-.091.11-.092-.034-.068.165.215.358.519l.523 1.113c.39.707.585 1.558.874 2.324.496 1.588.914 3.189 1.232 4.777 1.337 6.341 1.946 12.217 2.481 17.126.448 4.83.816 8.786 1.084 11.672.25 2.76.423 4.288.562 4.284.14-.003.234-1.542.225-4.32-.011-2.778-.118-6.797-.445-11.758-.358-4.958-.815-10.868-2.081-17.382-.301-1.63-.708-3.292-1.216-4.982-.304-.84-.49-1.702-.929-2.545-.514-.839-.386-1.682-1.966-2.71-.832-.352-1.748.078-2.247.607-.425.461-.68.915-.907 1.361-.448.897-.775 1.792-1.064 2.696-.578 1.808-1.023 3.648-1.432 5.515-.895 4.155-1.543 8.219-2.105 12.13-.259 1.957-.513 3.873-.76 5.744-.19 1.686-.376 3.331-.557 4.93-.898.387-1.78.767-2.643 1.138-1.021.458-2.015.914-2.973 1.387-1.926.922-3.715 1.893-5.383 2.838-3.325 1.907-6.106 3.853-8.175 5.753-2.047 1.911-3.456 3.709-3.976 5.182C2086.945 790.542 2087.015 791.409 2087.062 791.394zM2111.448 800.795c-.078-.116-.688.085-1.706.539-1.043.403-2.384 1.304-4.277 1.849-3.597 1.464-9.038 2.546-14.786 1.191-1.456-.216-2.774-.841-4.101-1.237-1.25-.612-2.523-1.07-3.614-1.76-2.279-1.203-4.129-2.646-5.696-3.83-3.06-2.484-4.723-4.313-4.949-4.138-.223.158 1.077 2.357 4.003 5.214 1.503 1.372 3.344 2.999 5.705 4.369 1.128.77 2.469 1.309 3.796 1.981 1.417.461 2.83 1.134 4.41 1.378 3.09.809 6.186.673 8.9.346 2.704-.491 5.063-1.239 6.889-2.192 1.917-.757 3.188-1.87 4.129-2.495C2111.065 801.333 2111.526 800.911 2111.448 800.795z"></path>
    <path fill="#C18C7C" d="M2123.64,751.181c0.071,0.153,1.249-0.635,1.897-2.797c0.67-2.122,0.808-5.379,0.139-9.202
				c-0.303-1.888-0.565-3.839-0.272-5.979c0.272-2.108,0.994-4.319,2.27-6.305c0.631-0.985,1.444-1.917,2.349-2.572
				c0.22-0.112,0.465-0.304,0.639-0.331c0.06-0.035,0.038-0.011,0.056-0.01l0.305,1.205c0.526,2.614,0.897,5.442,1.267,8.314
				c0.72,5.762,1.316,11.274,1.838,16.287c0.247,2.497,0.481,4.876,0.702,7.114c0.033,0.529,0.129,1.15,0.088,1.562
				c0.013,0.397-0.146,0.861-0.264,1.301c-0.354,0.891-0.775,1.752-1.268,2.542c-1.951,3.174-3.984,5.526-5.306,7.182
				c-1.354,1.643-2.103,2.56-2.003,2.661c0.097,0.098,1.038-0.634,2.583-2.128c1.52-1.518,3.725-3.716,5.938-6.952
				c0.557-0.806,1.067-1.722,1.518-2.753c0.177-0.557,0.399-1.098,0.425-1.796c0.059-0.667-0.02-1.149-0.035-1.738
				c-0.128-2.256-0.308-4.648-0.519-7.168c-0.421-5.039-0.962-10.569-1.688-16.369c-0.375-2.904-0.755-5.72-1.338-8.487
				c-0.228-0.698-0.148-1.362-1.137-2.465c-0.275-0.155-0.555-0.29-0.883-0.26c-0.313-0.043-0.634-0.021-0.91,0.114
				c-0.478,0.148-0.76,0.386-1.118,0.591c-1.223,0.916-2.099,2.007-2.812,3.151c-2.879,4.624-2.79,9.852-1.833,13.556
				c0.824,3.663,0.896,6.721,0.504,8.74C2124.4,750.239,2123.557,751.093,2123.64,751.181z"></path>
    <path fill="#D7A28E" d="M1989.949,1764.144c0,0,88.921,170.668,66.607,224.893c-31.699,77.032-220.087,300.367-220.087,300.367
				s-30.634,30.214-39.427-21.409l155.937-286.426c0,0-78.263-114.082-98.506-152.969
				C1834.209,1789.735,1989.949,1764.144,1989.949,1764.144z"></path>
    <path fill="#C18C7C" d="M1861.954,1842.88l31.286,49.499c0,0,86.713-53.858,99.359-47.673
				c12.646,6.186,67.916,84.415,53.144,137.519s-108.563,182.602-108.563,182.602s127.399-174.495,132.341-186.282
				c4.942-11.787-61.763-196.902-61.763-196.902L1861.954,1842.88z"></path>
    <path fill="#C18C7C" d="M1956.001,1979.337c2.186-6.309,36.604-13.961,38.21-10.302c1.606,3.658-29.8,11.978-29.8,11.978
				s51.546,10.353,39.027,20.975C1990.92,2012.61,1950.713,1994.599,1956.001,1979.337z"></path>
    <path fill="#11405C" d="M1792.147,2275.619c0,0-25.835,38.862-19.132,45.448c6.703,6.587,12.342,11.434,13.729,10.023
				c1.387-1.412,13.724-13.966,13.724-13.966S1804.119,2287.956,1792.147,2275.619z"></path>
    <path fill="#11405C" d="M1839.72,2286.097c0,0,17.997,102.284,3.069,126.021c-5.034,8.006-20.084-1.885-32.315-26.472
				c-12.272-24.586-37.681-128.216-11.226-122.936C1799.248,2262.71,1803.465,2294.939,1839.72,2286.097z"></path>
    <path fill="#2F627C" d="M1789.534 2295.171c0 0 7.108 36.021 3.733 30.928C1789.891 2321.007 1784.93 2308.59 1789.534 2295.171zM1834.677 2287.528c-2.874 21.339 7.286 71.428 1.465 79.132-6.75 9.01-24.889-62.023-25.021-83.983C1815.387 2288.452 1828.787 2290.87 1834.677 2287.528z"></path>
    <g>
      <path fill="#D7A28E" d="M1680.433,1795.854c0,0,40.505,185.943,48.386,268.803c0,0-31.837,258.606-58.784,330.765
				c0,0,12.762,84.459,42.97,31.11c20.699-68.298,129.571-334.698,129.571-334.698l-7.581-271.544L1680.433,1795.854z"></path>
      <path fill="#C18C7C" d="M1834.994,1820.289l2.412,86.387c0,0-106.746-6.949-106.18,1.951
				c0.567,8.901-7.441,91.249,10.029,106.047c17.471,14.798,52.302,22.26,41.169,24.206c-11.132,1.946-39.62,4.749-35.227,10.36
				c4.393,5.611,77.158,44.519,49.779,42.629c-27.38-1.891-52.497-16.588-52.251-4.714c0.245,11.874-65.122,303.87-65.122,303.87
				l-4.668-11.179l53.883-315.188l-48.386-268.803L1834.994,1820.289z"></path>
      <path fill="#11405C" d="M1674.936,2379.844c0,0-34.083,20.213-31.789,37.435c2.302,17.194-33.993,48.882-27.715,47.964
				c2.408-0.298,11.582,5.486,23.192,13.718c2.641,1.873,14.072-17.767,16.914-15.683c17.525,12.845,29.237,50.519,40.507,59.708
				c0,0,48.819,44.947,57.492,26.264c8.663-18.655-38.439-69.362-36.92-81.514c1.532-12.208,0.199-53.087,0.199-53.087
				S1688.085,2419.58,1674.936,2379.844z"></path>
    </g>
    <path fill="#11405C" d="M1783.955,1254.667c-160.533-71.928-136.63,136.319-182.173-27.302
		c-41.031-70.083,12.421-155.584,112.814-171.208c68.219-38.36,136.332-59.924,154.576-36.613
		c53.068-15.344,75.996,21.856,55.549,93.697c-16,56.218-40.761,81.472-102.052,87.629L1783.955,1254.667z"></path>
    <g>
      <path fill="#D7A28E" d="M1756.993,1156.099l-80.378-55.812l-71.925-260.828l-45.753,6.243c0,0,36.863,264.5,39.298,287.533
			c2.434,23.032,109.108,95.851,109.108,95.851L1756.993,1156.099z"></path>
      <path fill="#C18C7C" d="M1654.917,1021.6l23,73.73l55.157,41.621l-80.209,48.532c0,0,4.219-49.337,31.459-68.098
			c0,0,1.153-12.927-12.785-7.608c-13.938,5.32-37.477,13.032-31.538,8.431c5.938-4.601,29.382-18.555,25.717-17.828
			C1662.053,1101.107,1654.917,1021.6,1654.917,1021.6z"></path>
      <path fill="#D7A28E" d="M1604.69,839.459c-2.078-10.882-6.59-31.933-11.007-35.493c-6.003-4.838-24.926-32.964-28.237-33.157
				c-3.311-0.193-7.607,5.752-2.106,16.128c5.501,10.375,15.474,16.433,9.085,18.216c-6.388,1.782-22.014-5.861-22.014-5.861
				s-17.03-27.482-21.437-28.117c-1.754-0.253-3.335,0.707-4.442,2.406c-3.017-6.012-7-11.012-10.992-8.711
				c-1.67,0.962,1.735,13.232,3.747,24.676c2.817,16.018,10.817,24.134,10.817,24.134s5.651,4.856,11.494,8.001l1.181,10.45
				c0,0,8.849,6.85,18.159,13.572c-0.061,0.806,5.515,23.521,5.515,23.521l43.957-13.936L1604.69,839.459z"></path>
      <path fill="#C18C7C" d="M1580.616 831.105c-.142.06-.452-.702-1.387-1.777-.911-1.118-2.688-2.341-5.086-3.557-2.419-1.201-5.529-2.316-9.161-3.295-1.819-.48-3.758-.963-5.819-1.376-1.028-.219-2.087-.414-3.17-.607-.542-.092-1.09-.184-1.643-.277-.735-.109-1.478-.22-2.228-.332-.672-1.838-1.364-3.729-2.072-5.667-.673-1.751-1.362-3.546-2.067-5.377-1.439-3.649-2.982-7.434-4.747-11.211-.797-1.692-1.619-3.348-2.523-4.889-.449-.769-.931-1.507-1.443-2.137-.249-.32-.538-.584-.743-.757-.145-.085-.113-.067-.127-.065.018-.074-.113.245-.234.585l-.262 1.201c-.222.776-.224 1.649-.335 2.461-.13 1.658-.181 3.313-.137 4.931.109 6.48.825 12.344 1.396 17.248.639 4.81 1.161 8.747 1.543 11.621.371 2.747.543 4.274.406 4.302s-.571-1.451-1.182-4.162c-.608-2.711-1.399-6.652-2.185-11.561-.756-4.913-1.626-10.777-1.843-17.409-.07-1.656-.043-3.368.075-5.127.109-.887.098-1.768.339-2.688.315-.933.002-1.726 1.313-3.08.733-.529 1.721-.313 2.325.091.517.355.866.74 1.188 1.126.636.774 1.155 1.574 1.638 2.391.966 1.634 1.81 3.329 2.625 5.057 1.799 3.852 3.335 7.669 4.754 11.357.688 1.85 1.362 3.661 2.021 5.431.561 1.601 1.109 3.163 1.641 4.682.962.177 1.906.351 2.83.521 1.097.219 2.168.442 3.207.69 2.083.471 4.044 1.019 5.88 1.568 3.667 1.119 6.811 2.397 9.251 3.788 2.422 1.406 4.196 2.847 5.03 4.167C1580.541 830.248 1580.665 831.109 1580.616 831.105zM1558.937 845.702c.051-.131.689-.071 1.784.145 1.106.161 2.615.74 4.582.851 3.832.626 9.378.468 14.679-2.133 1.371-.535 2.517-1.438 3.723-2.12 1.082-.874 2.221-1.605 3.131-2.521 1.954-1.68 3.436-3.499 4.7-5.003 2.43-3.103 3.644-5.256 3.902-5.137.252.104-.524 2.537-2.74 5.974-1.16 1.671-2.593 3.668-4.589 5.529-.927 1.002-2.115 1.826-3.258 2.776-1.278.766-2.507 1.736-3.993 2.326-2.832 1.477-5.881 2.034-8.6 2.319-2.744.124-5.212-.081-7.203-.602-2.037-.311-3.524-1.113-4.581-1.512C1559.431 846.141 1558.887 845.832 1558.937 845.702z"></path>
      <path fill="#C18C7C" d="M1536,800.05c-0.035,0.165-1.358-0.34-2.472-2.304c-1.126-1.92-1.986-5.064-2.185-8.941
				c-0.125-1.907-0.304-3.869-1.067-5.889c-0.735-1.994-1.931-3.99-3.617-5.641c-0.835-0.819-1.836-1.547-2.863-1.984
				c-0.239-0.06-0.521-0.192-0.697-0.181c-0.066-0.021-0.04-0.002-0.057,0.003l-0.029,1.243c0.071,2.665,0.338,5.505,0.617,8.388
				c0.581,5.777,1.229,11.285,1.836,16.288c0.316,2.489,0.617,4.861,0.9,7.091c0.087,0.523,0.131,1.15,0.263,1.542
				c0.075,0.39,0.335,0.806,0.547,1.21c0.544,0.789,1.146,1.535,1.802,2.195c2.608,2.66,5.115,4.5,6.773,5.82
				c1.685,1.3,2.62,2.029,2.546,2.148c-0.073,0.117-1.154-0.388-2.993-1.499c-1.819-1.141-4.459-2.793-7.337-5.455
				c-0.721-0.661-1.423-1.441-2.093-2.345c-0.297-0.504-0.633-0.983-0.814-1.656c-0.206-0.638-0.237-1.126-0.353-1.703
				c-0.377-2.227-0.735-4.6-1.091-7.104c-0.712-5.006-1.416-10.518-2.001-16.333c-0.281-2.915-0.539-5.744-0.586-8.571
				c0.066-0.732-0.16-1.362,0.559-2.657c0.234-0.212,0.477-0.406,0.803-0.45c0.296-0.112,0.614-0.161,0.913-0.091
				c0.5,0.037,0.827,0.206,1.222,0.327c1.396,0.621,2.493,1.489,3.443,2.446c3.837,3.867,4.915,8.982,4.806,12.807
				c0.013,3.755,0.624,6.752,1.456,8.633C1535.05,799.3,1536.061,799.946,1536,800.05z"></path>
    </g>
    <path fill="#FFC439" d="M2078.805,1198.326c-2.827,29.535-79.191,88.393-79.191,88.393c4.091,15.628,6.443,28.615,5.734,35.959
		c-3.247,32.67-97.791,88.454-84.22,161.792c13.47,73.277,116.377,319.926,116.377,319.926s-297.297,119.463-393.846,44.262
		c0,0,22.16-211.134,87.582-320.41c65.356-109.519,31.979-166.131,15.359-217.019c-16.556-50.649-96.912-81.817-103.688-119.738
		c0,0,42.855-76.832,80.516-68.457c33.145,32.194,91.672,76.699,91.672,76.699s79.226,13.414,106.354-3.854
		c20.163-12.835,59.985-74.244,83.877-74.933C2031.997,1120.178,2081.347,1171.771,2078.805,1198.326z"></path>
    <path fill="#DBA12C" d="M1707.419 1813.88c-11.549-17.057-41.678-69.064-31.788-73.219C1685.521 1736.505 1707.419 1813.88 1707.419 1813.88zM1666.324 1805.775c-4.493-53.601 56.427 50.196 56.427 50.196S1671.234 1864.366 1666.324 1805.775zM1849.734 1407.82c36.186 11.831 62.971-16.833 62.971-16.833s2.047 22.74 36.727 6.817c0 0-21.182 19.312-40.775 12.095 0 0-11.167 8.98-23.639 13.082C1872.547 1427.082 1849.734 1407.82 1849.734 1407.82z"></path>
    <g>
      <path fill="#D7A28E" d="M1840.719,1206.108c-2.605-13.801-4.566-61.531-6.486-72.04c-0.572-3.126,40.898,12.944,40.898,12.944
			s23.531,46.589,28.159,61.086c3.451,1.905,2.863,43.912-10.221,46.464C1879.986,1257.114,1841.868,1212.196,1840.719,1206.108z"></path>
      <path fill="#C18C7C" d="M1876.342,1149.596l14.85,30.343c0,0-45.89-26.79-43.98-35.106
			C1849.121,1136.516,1876.342,1149.596,1876.342,1149.596z"></path>
      <path fill="#D7A28E" d="M1914.015,1139.654c-27.955,41.15-77.957-2.743-79.538-2.005c-1.581,0.739-2.744,2.144-4.212,3.088
			c-5.691,3.663-13.613-4.888-17.69-10.29c-13.114-17.375,3.375-19.686,7.748-16.52c2.283-1.166-27.617-30.723,13.781-61.795
			c22.204-11.866,34.343-3.637,45.643,4.803c18.763,14.013,36.082,39.571,38.695,62.843
			C1919.267,1127.119,1918.201,1133.491,1914.015,1139.654z"></path>
      <path fill="#11405C" d="M1858.156 1096.894c.82 3.841-1.158 7.512-4.398 8.204-3.243.693-6.548-1.85-7.368-5.691s1.154-7.53 4.397-8.223c.908-.194 1.815-.137 2.689.162-1.078.589-1.674 2.008-1.36 3.481.371 1.734 1.878 2.902 3.353 2.586 1.081-.231 1.861-1.204 2.036-2.391C1857.793 1095.61 1858.013 1096.226 1858.156 1096.894zM1893.724 1081.524c.821 3.841-1.158 7.512-4.397 8.203-3.243.693-6.549-1.85-7.369-5.691-.82-3.841 1.155-7.531 4.397-8.223.908-.194 1.815-.137 2.689.163-1.078.589-1.674 2.008-1.359 3.481.37 1.734 1.877 2.901 3.353 2.586 1.082-.231 1.861-1.204 2.036-2.391C1893.361 1080.24 1893.581 1080.856 1893.724 1081.524zM1815.231 1117.805l3.604 5.469-4.583 1.226 5.06 1.234c2.257 1.762 2.905 5.246 2.905 5.246C1824.378 1125.2 1818.245 1119.305 1815.231 1117.805zM1881.772 1047.436c0 0-3.77 15.543-18.649 13.259-14.879-2.283-34.382-8.524-32.127 10.155.875 7.247-16.611 11.824-8.722 22.792 7.263 10.097 2.333 23.617-5.81 19.13-12.266-6.76-21.99-28.806-3.496-51.64C1831.463 1038.3 1871.923 1033.969 1881.772 1047.436z"></path>
      <path fill="#11405C" d="M1834.94 1095.339c1.851 1.079 6.71-3.81 9.416-8.454 2.704-4.645 2.232-7.284.381-8.363-1.853-1.079-4.383-.188-7.087 4.456C1834.944 1087.623 1833.088 1094.26 1834.94 1095.339zM1884.368 1067.697c.036 2.142-6.604 3.99-11.979 4.081-5.373.088-7.445-1.614-7.482-3.757-.035-2.143 1.98-3.914 7.353-4.004C1877.635 1063.927 1884.332 1065.553 1884.368 1067.697z"></path>
      <path fill="#FFF" d="M1893.726,1113.115c-2.8,1.933-2.752,4.76-13.148,3.515c-10.396-1.246-14.631-3.287-14.88,2.056
			c-0.249,5.343,22.46,16.259,31.011,5.588C1905.261,1113.601,1895.612,1111.813,1893.726,1113.115z"></path>
      <path fill="#11405C" d="M1879.596,1105.175c0.267-0.071,0.526-0.192,0.765-0.361c3.144-2.245,3.598-4.557,3.425-6.101
			c-0.321-2.865-2.905-5.276-7.897-7.368c-6.096-2.555-10.425-10.538-11.62-10.077c-1.218,0.47,1.775,11.09,9.786,14.448
			c3.839,1.609,4.962,3.01,5.02,3.526c0.027,0.229-0.255,0.848-1.468,1.713c-1.065,0.762-1.313,2.241-0.552,3.306
			C1877.646,1105.089,1878.67,1105.423,1879.596,1105.175z"></path>
      <path fill="#C18C7C" d="M1892.777,1137.814c1.786-0.478,3.599-1.354,5.362-2.849
			c0.998-0.845,1.122-2.341,0.275-3.34c-0.847-0.998-2.343-1.122-3.34-0.275c-3.535,2.999-7.235,2.337-11.149,1.641l-0.463-0.082
			c-1.289-0.229-2.518,0.631-2.746,1.921c-0.228,1.289,0.632,2.519,1.921,2.746l0.456,0.082
			C1885.841,1138.146,1889.258,1138.754,1892.777,1137.814z" opacity=".5"></path>
    </g>
    <path fill="#DBA12C" d="m1962.429 1250.975 37.185 35.744c0 0 47.33-35.457 54.052-48.694C2053.666 1238.025 1988.947 1265.901 1962.429 1250.975zM1818.232 1203.79c0 0 16.202 37.625 6.983 46.233C1815.996 1258.631 1818.232 1203.79 1818.232 1203.79z"></path>
  </g>
  <g>
    <linearGradient id="a" x1="2423.68" x2="2423.68" y1="787.678" y2="666.162" gradientUnits="userSpaceOnUse">
      <stop offset=".037" stop-color="#d4c95e"></stop>
      <stop offset="1" stop-color="#ff9444"></stop>
    </linearGradient>
    <polygon fill="url(#a)" points="2423.681 697.601 2315.707 729.115 2423.681 802.691 2531.653 729.115"></polygon>
    <polygon fill="#009444" points="2423.681 574.333 2315.707 647.924 2423.681 721.483 2531.653 647.924"></polygon>
    <polygon fill="#009444" points="2423.681 721.53 2423.681 802.737 2315.754 731.513 2315.754 647.908"></polygon>
    <polygon fill="#097C3A" points="2531.653 647.908 2531.653 731.513 2423.681 802.737 2423.681 721.53"></polygon>
    <polygon fill="#CDEEFF" points="2353.913 680.833 2465.334 602.086 2489.969 618.87 2381.651 692.852 2381.651 774.906 2353.913 756.696" opacity=".25"></polygon>
    <polygon fill="#CDEEFF" points="2496.989 678.67 2381.995 603.105 2357.392 619.904 2469.283 690.69 2469.283 772.775 2496.989 754.549" opacity=".25"></polygon>
    <path fill="#11405C" d="M2594.902,447.022c-1.208-1.066-162.634,185.231-162.634,185.231s64.345-201.216,62.841-201.732
				c-1.473-0.471-71.428,209.678-71.428,209.678s-69.94-210.148-71.43-209.678c-1.52,0.517,62.794,201.732,62.794,201.732
				s-161.396-186.297-162.586-185.231c-1.208,1.003-1.349,2.789-0.282,4.012l167.898,195.888c0.533,0.627,1.363,1.003,2.163,1.003
				c0.47,0,0.972-0.141,1.379-0.376c0.063-0.016,0.063-0.016,0.063-0.016s0.015,0,0.015,0.016c0.455,0.235,0.94,0.376,1.426,0.376
				c0.816,0,1.599-0.376,2.163-1.003l167.915-195.888C2596.249,449.811,2596.092,448.024,2594.902,447.022z"></path>
    <path fill="#549BEC" d="M2597.879,452.161c-21.861-6.269-46.386-11.393-72.823-15.138c-20.168-2.836-41.45-4.889-63.562-5.97
				c-12.802-0.674-25.936-1.003-39.256-1.003c-13.32,0-26.421,0.329-39.256,1.003c-22.111,1.081-43.393,3.134-63.562,5.97
				c-26.436,3.746-50.962,8.87-72.823,15.138c7.679-90.28,83.401-161.113,175.641-161.113S2590.2,361.881,2597.879,452.161z"></path>
    <path fill="#91C4F6" d="M2422.238,291.048c-19.322,0-35.448,60.036-39.256,140.005c-22.111,1.081-43.393,3.134-63.562,5.97
				C2327.93,354.124,2370.712,291.048,2422.238,291.048z"></path>
    <path fill="#91C4F6" d="M2525.055,437.023c-20.168-2.836-41.45-4.889-63.562-5.97c-3.808-79.969-19.934-140.005-39.256-140.005
				C2473.764,291.048,2516.546,354.124,2525.055,437.023z"></path>
    <g>
      <path fill="#F2CD33" d="M2400.755,693.698l-39.099-39.428l-21.971,11.252l-75.22,74.563l5.265,5.36l39.067,39.396l5.281,5.327
					l75.205-74.594L2400.755,693.698z M2368.693,686.397c-2.303-2.336-2.257-6.081,0.047-8.353c2.32-2.335,6.034-2.335,8.369,0
					c2.303,2.335,2.303,6.096-0.032,8.384C2374.758,688.715,2371.012,688.684,2368.693,686.397z"></path>
      <path fill="#DBA12C" d="M2314.628 749.926c.486-.47.862-.908 1.097-1.317.235-.407.361-.72.423-1.096.047-.315 0-.628-.109-.847-.095-.282-.282-.549-.502-.752-.517-.502-1.144-.658-1.944-.549-.799.141-1.927.564-3.463 1.332-.674.346-1.364.628-2.116.91-.705.25-1.426.438-2.162.47-.721.03-1.458-.063-2.179-.282-.737-.251-1.489-.737-2.162-1.41-.706-.69-1.207-1.489-1.504-2.289-.314-.814-.408-1.66-.314-2.57.078-.862.361-1.708.847-2.648.454-.861 1.128-1.787 1.975-2.586 1.034-1.034 2.006-1.818 2.993-2.351.956-.532 1.786-.878 2.555-1.096l1.724 3.635c-.643.235-1.317.517-2.006.847-.706.376-1.38.878-2.116 1.63-.815.814-1.316 1.519-1.426 2.083-.141.564.047 1.113.47 1.598.298.236.611.423.909.486.36.031.689.031 1.081-.063.376-.047.83-.235 1.254-.407.439-.157.893-.392 1.41-.627 1.082-.517 2.037-.908 2.884-1.19.925-.314 1.724-.47 2.492-.47.752 0 1.504.124 2.194.485.674.329 1.426.832 2.115 1.551 1.426 1.41 2.022 3.041 1.803 4.795-.204 1.786-1.286 3.62-3.307 5.641-.69.691-1.316 1.223-1.927 1.693-.595.423-1.175.815-1.724 1.097-.533.346-1.034.549-1.457.722-.423.156-.799.297-1.097.376l-1.74-3.652c.674-.203 1.458-.549 2.303-1.019C2312.795 751.588 2313.688 750.867 2314.628 749.926zM2336.019 733.786c-.737-.361-1.41-.722-2.194-1.067-.752-.376-1.473-.72-2.225-1.081l-5.924 5.924c.376.737.721 1.489 1.082 2.21.376.752.72 1.504 1.081 2.162l-3.526 3.526c-1.065-2.178-2.021-4.232-2.914-6.159-.846-1.849-1.646-3.667-2.398-5.391-.737-1.693-1.395-3.353-2.053-4.92-.611-1.584-1.191-3.166-1.74-4.702l3.276-3.228c1.52.533 3.071 1.16 4.67 1.739 1.598.611 3.244 1.302 4.936 2.054 1.724.72 3.511 1.519 5.438 2.381 1.88.91 3.902 1.865 6.112 2.899L2336.019 733.786zM2320.191 726.185c.125.282.329.674.564 1.222.219.549.517 1.144.799 1.803.329.658.643 1.474 1.019 2.256.376.847.752 1.693 1.191 2.57l4.325-4.293c-.893-.455-1.755-.831-2.554-1.207-.83-.391-1.583-.706-2.257-1.034-.705-.282-1.316-.564-1.833-.767C2320.928 726.483 2320.52 726.279 2320.191 726.185zM2348.806 715.169l2.93 2.93-10.107 10.076-15.186-15.138 3.432-3.385 12.208 12.208L2348.806 715.169zM2353.9 715.889l-15.154-15.107 10.264-10.234 2.852 2.868-6.817 6.802 2.962 2.977 6.065-6.065 2.774 2.821-6.065 6.034 3.636 3.636 7.365-7.303 2.868 2.852L2353.9 715.889z"></path>
    </g>
    <path fill="#CDEEFF" d="M2375.869,676.745c0.673-0.694,23.793-26.78,45.41-32.866c1.441-0.406,4.534,3.906,3.843,4.045
			c-19.585,3.933-47.025,29.626-47.659,30.713C2376.068,681.026,2372.91,679.798,2375.869,676.745z"></path>
    <g>
      <path fill="#FFC439" d="M1846.111,486.303l-138.762,39.661l-1.964,64.124l75.631,264.809l18.809-5.3l138.709-39.664l18.766-5.375
				l-75.706-264.765L1846.111,486.303z M1789.252,550.165c-8.136,2.329-16.596-2.452-18.954-10.552
				c-2.313-8.196,2.353-16.74,10.576-19.086c8.098-2.308,16.709,2.385,19.074,10.583
				C1802.208,539.302,1797.476,547.818,1789.252,550.165z"></path>
      <path fill="#DBA12C" d="M1796.313,615.296l-3.12-10.872l18.833-5.347l3.195,10.828c17.306-1.243,29.299,8.912,34.93,28.835
					l1.354,4.568l-21.859,6.273l-1.775-6.064c-2.968-10.525-8.321-13.333-15.613-11.194c-7.335,2.064-10.387,7.257-7.433,17.757
					c8.634,30.159,54.212,18.74,66.159,60.797c5.637,19.852,0.693,35.154-14.691,43.146l3.086,10.725l-18.894,5.416l-3.099-10.75
					c-17.531,1.374-29.514-9.021-35.196-28.947l-2.809-10.082l21.721-6.16l3.276,11.485c3.043,10.481,8.726,12.995,16.02,10.856
					c7.373-2.086,10.935-7.174,7.931-17.679c-8.624-30.232-54.188-18.787-66.114-60.722
					C1776.543,638.432,1781.148,623.495,1796.313,615.296z"></path>
    </g>
    <g>
      <path fill="#F2CD33" d="M1221.44,1272.507l-49.887,256.874c0,0,161.584,81.748,167.473,75.832
			c5.888-5.916,107.889-248.818,107.889-248.818L1221.44,1272.507z"></path>
      <path fill="#DBA12C" d="M1304.143,1385.842c11.235,4.882,15.586,14.927,7.568,26.908c-7.9,12.032-20.46,14.729-31.695,9.847
				c-11.353-4.934-15.704-14.979-7.804-27.011C1280.231,1383.604,1292.908,1380.96,1304.143,1385.842z M1341.354,1403.418
				l19.512,8.479l-96.492,57.046l-19.513-8.479L1341.354,1403.418z M1286.285,1401.701c-3.311,5.029-2.733,8.232,0.814,9.773
				c3.547,1.542,7.347,0.241,10.657-4.789c3.31-5.029,2.615-8.283-0.933-9.824
				C1293.276,1395.319,1289.595,1396.672,1286.285,1401.701z M1325.949,1449.868c11.235,4.883,15.468,14.876,7.45,26.857
				c-7.9,12.033-20.46,14.729-31.695,9.846c-11.234-4.882-15.586-14.927-7.568-26.908
				C1302.036,1447.631,1314.714,1444.985,1325.949,1449.868z M1307.973,1465.676c-3.311,5.029-2.733,8.232,0.932,9.824
				c3.43,1.491,7.229,0.19,10.539-4.839c3.31-5.029,2.615-8.283-0.814-9.773C1315.081,1459.346,1311.283,1460.647,1307.973,1465.676
				z"></path>
    </g>
    <g>
      <path fill="#F2CD33" d="M2439.324,1260.834l74.659,180.703c0,0,134.406-15.56,135.642-21.673
			c1.236-6.113-35.178-199.56-35.178-199.56L2439.324,1260.834z"></path>
      <path fill="#DBA12C" d="M2537.554,1297.447c9.015-1.582,15.864,2.89,15.798,13.661c0.029,10.755-6.692,17.608-15.708,19.189
				c-9.11,1.598-15.959-2.873-15.988-13.628C2521.723,1305.898,2528.538,1299.029,2537.554,1297.447z M2567.992,1293.086
				l15.658-2.747l-36.676,75.297l-15.657,2.747L2567.992,1293.086z M2532.949,1314.689c0.007,4.498,1.685,6.258,4.531,5.759
				c2.847-0.5,4.68-2.875,4.673-7.373c-0.007-4.499-1.78-6.241-4.626-5.742C2534.681,1307.831,2532.942,1310.19,2532.949,1314.689z
				 M2577.512,1328.389c9.015-1.581,15.769,2.907,15.703,13.679c0.029,10.755-6.692,17.607-15.708,19.189
				c-9.015,1.582-15.864-2.89-15.798-13.661C2561.681,1336.84,2568.496,1329.971,2577.512,1328.389z M2572.812,1345.647
				c0.007,4.499,1.686,6.258,4.626,5.742c2.753-0.483,4.586-2.858,4.579-7.357c-0.006-4.498-1.78-6.241-4.531-5.759
				C2574.638,1338.774,2572.805,1341.149,2572.812,1345.647z"></path>
    </g>
    <path fill="#DCF4E6" d="M2080.835,1426.026c70.848,74.815,294.625,51.841,343.672,4.318c0,0-15.067,52.177-183.927,55.263
		C2099.57,1488.185,2080.835,1426.026,2080.835,1426.026z"></path>
    <g>
      <linearGradient id="b" x1="1310.675" x2="1310.675" y1="708.411" y2="586.896" gradientUnits="userSpaceOnUse">
        <stop offset=".037" stop-color="#d4c95e"></stop>
        <stop offset="1" stop-color="#ff9444"></stop>
      </linearGradient>
      <polygon fill="url(#b)" points="1310.676 618.334 1202.702 649.848 1310.676 723.424 1418.648 649.848"></polygon>
      <polygon fill="#009444" points="1310.676 495.066 1202.702 568.657 1310.676 642.217 1418.648 568.657"></polygon>
      <polygon fill="#009444" points="1310.676 642.264 1310.676 723.471 1202.749 652.247 1202.749 568.642"></polygon>
      <polygon fill="#097C3A" points="1418.648 568.642 1418.648 652.247 1310.676 723.471 1310.676 642.264"></polygon>
      <polygon fill="#CDEEFF" points="1240.909 601.566 1352.329 522.82 1376.964 539.603 1268.646 613.586 1268.646 695.64 1240.909 677.429" opacity=".25"></polygon>
      <polygon fill="#CDEEFF" points="1383.984 599.404 1268.99 523.838 1244.388 540.637 1356.278 611.423 1356.278 693.508 1383.984 675.282" opacity=".25"></polygon>
      <path fill="#11405C" d="M1481.897,367.755c-1.207-1.065-162.634,185.231-162.634,185.231s64.346-201.216,62.841-201.733
				c-1.472-0.47-71.428,209.678-71.428,209.678s-69.94-210.148-71.429-209.678c-1.52,0.517,62.793,201.733,62.793,201.733
				s-161.396-186.297-162.586-185.231c-1.207,1.003-1.348,2.79-0.282,4.012l167.898,195.887c0.533,0.627,1.364,1.003,2.163,1.003
				c0.47,0,0.972-0.141,1.379-0.376c0.063-0.016,0.063-0.016,0.063-0.016s0.015,0,0.015,0.016c0.456,0.235,0.94,0.376,1.427,0.376
				c0.816,0,1.598-0.376,2.162-1.003l167.915-195.887C1483.244,370.544,1483.087,368.758,1481.897,367.755z"></path>
      <path fill="#FFC439" d="M1484.874,372.895c-21.861-6.269-46.386-11.393-72.823-15.138c-20.169-2.836-41.45-4.889-63.562-5.971
				c-12.802-0.674-25.936-1.003-39.256-1.003c-13.32,0-26.422,0.329-39.256,1.003c-22.111,1.082-43.393,3.135-63.562,5.971
				c-26.436,3.746-50.962,8.87-72.823,15.138c7.679-90.28,83.401-161.114,175.641-161.114
				C1401.473,211.781,1477.196,282.615,1484.874,372.895z"></path>
      <path fill="#DBA12C" d="M1309.234,211.781c-19.323,0-35.448,60.036-39.256,140.005c-22.111,1.082-43.393,3.135-63.562,5.971
				C1214.925,274.857,1257.707,211.781,1309.234,211.781z"></path>
      <path fill="#DBA12C" d="M1412.051,357.757c-20.169-2.836-41.45-4.889-63.562-5.971c-3.808-79.969-19.934-140.005-39.256-140.005
				C1360.76,211.781,1403.541,274.857,1412.051,357.757z"></path>
      <g>
        <path fill="#91C4F6" d="M1319.724,618.422l-54.403-11.118l-12.039,21.55l-21.228,103.765l7.355,1.539l54.359,11.109l7.349,1.503
					l21.197-103.783L1319.724,618.422z M1288.996,630.132c-3.212-0.665-5.25-3.808-4.594-6.977c0.634-3.229,3.725-5.289,6.962-4.642
					c3.213,0.666,5.299,3.795,4.625,6.993C1295.328,628.697,1292.194,630.748,1288.996,630.132z"></path>
        <path fill="#549BEC" d="M1279.251 712.981c.143-.66.214-1.234.182-1.704-.03-.469-.1-.799-.256-1.147-.135-.287-.348-.522-.56-.643-.234-.182-.539-.3-.834-.348-.709-.131-1.317.087-1.922.621-.587.561-1.291 1.539-2.143 3.03-.369.661-.786 1.278-1.256 1.93-.448.599-.943 1.156-1.538 1.591-.583.425-1.248.756-1.969.973-.752.199-1.647.212-2.582.027-.969-.183-1.83-.57-2.521-1.07-.713-.504-1.26-1.155-1.687-1.965-.413-.76-.647-1.621-.764-2.672-.1-.969-.052-2.113.208-3.247.287-1.434.661-2.625 1.186-3.616.5-.973 1-1.721 1.517-2.329l3.451 2.068c-.405.552-.808 1.16-1.2 1.817-.378.704-.66 1.496-.856 2.531-.226 1.129-.252 1.994-.031 2.524.196.548.657.9 1.278 1.069.378.03.743.013 1.025-.1.318-.174.592-.357.865-.652.287-.247.561-.656.817-1.034.278-.373.526-.821.826-1.304.613-1.03 1.192-1.886 1.739-2.59.595-.774 1.173-1.347 1.812-1.773.626-.417 1.321-.731 2.095-.814.743-.1 1.648-.1 2.62.117 1.969.383 3.369 1.409 4.16 2.99.821 1.599.939 3.725.378 6.528-.191.957-.418 1.747-.665 2.478-.261.682-.526 1.33-.826 1.869-.252.583-.557 1.03-.812 1.409-.266.364-.5.691-.704.922l-3.473-2.074c.448-.543.908-1.265 1.351-2.126C1278.647 715.38 1278.99 714.285 1279.251 712.981zM1288.097 687.686c-.814.108-1.574.182-2.417.329-.834.104-1.625.218-2.451.335l-1.643 8.215c.722.405 1.426.839 2.126 1.239.73.417 1.434.852 2.099 1.199l-.978 4.89c-2.094-1.221-4.029-2.399-5.841-3.507-1.729-1.069-3.403-2.138-4.985-3.156-1.552-.999-3.021-2.016-4.438-2.955-1.387-.979-2.747-1.974-4.055-2.947l.934-4.504c1.56-.4 3.199-.738 4.85-1.143 1.669-.378 3.421-.716 5.247-1.029 1.834-.357 3.763-.683 5.845-1.036 2.069-.286 4.281-.613 6.693-.978L1288.097 687.686zM1270.71 690.141c.261.165.648.378 1.148.704.487.335 1.065.665 1.665 1.056.639.365 1.352.87 2.1 1.313.782.495 1.564.991 2.416 1.478l1.218-5.971c-.995.116-1.922.282-2.795.412-.908.135-1.708.291-2.452.391-.743.157-1.408.261-1.951.379C1271.488 689.981 1271.036 690.037 1270.71 690.141zM1288.409 665.103l4.063.812-2.821 13.991-21.032-4.173.978-4.72 16.929 3.386L1288.409 665.103zM1293.047 662.876l-20.988-4.163 2.863-14.209 3.964.805-1.899 9.441 4.116.834 1.682-8.41 3.872.808-1.699 8.384 5.042 1.009 2.077-10.162 3.968.783L1293.047 662.876z"></path>
      </g>
      <path fill="#CDEEFF" d="M1289.613,618.12c0.175-0.95,4.942-35.48,19.552-52.535c0.974-1.137,5.939,0.735,5.441,1.234
			c-14.114,14.136-22.694,50.735-22.619,51.992C1292.153,621.572,1288.845,622.302,1289.613,618.12z"></path>
    </g>
  </g>
</svg>
